<?xml version="1.0" encoding="UTF-8" standalone="no"?>
<!DOCTYPE svg PUBLIC "-//W3C//DTD SVG 1.1//EN"
 "http://www.w3.org/Graphics/SVG/1.1/DTD/svg11.dtd">
<!-- Generated by graphviz version 2.40.1 (20161225.0304)
 -->
<!-- Title: state transitions Pages: 1 -->
<svg width="171pt" height="188pt"
 viewBox="0.00 0.00 171.00 188.00" xmlns="http://www.w3.org/2000/svg" xmlns:xlink="http://www.w3.org/1999/xlink">
<g id="graph0" class="graph" transform="scale(1 1) rotate(0) translate(4 184)">
<title>state transitions</title>
<polygon fill="#ffffff" stroke="transparent" points="-4,4 -4,-184 167,-184 167,4 -4,4"/>
<g id="clust1" class="cluster state regular">
<title>cluster_next_state</title>
<path fill="none" stroke="#000000" stroke-width="2" d="M20,-8C20,-8 143,-8 143,-8 149,-8 155,-14 155,-20 155,-20 155,-160 155,-160 155,-166 149,-172 143,-172 143,-172 20,-172 20,-172 14,-172 8,-166 8,-160 8,-160 8,-20 8,-20 8,-14 14,-8 20,-8"/>
<text text-anchor="start" x="54.3208" y="-153.2" font-family="Helvetica,sans-Serif" font-size="12.00" fill="#000000">next_state</text>
</g>
<!-- next_state -->
<!-- s0 -->
<g id="node2" class="node state regular">
<title>s0</title>
<polygon fill="#ffffff" fill-opacity="0.003922" stroke="transparent" stroke-width="2" points="93,-134 37,-134 37,-98 93,-98 93,-134"/>
<text text-anchor="start" x="58.6646" y="-112.2" font-family="Helvetica,sans-Serif" font-size="12.00" fill="#000000">s0</text>
<path fill="none" stroke="#000000" stroke-width="2" d="M49.3333,-99C49.3333,-99 80.6667,-99 80.6667,-99 86.3333,-99 92,-104.6667 92,-110.3333 92,-110.3333 92,-121.6667 92,-121.6667 92,-127.3333 86.3333,-133 80.6667,-133 80.6667,-133 49.3333,-133 49.3333,-133 43.6667,-133 38,-127.3333 38,-121.6667 38,-121.6667 38,-110.3333 38,-110.3333 38,-104.6667 43.6667,-99 49.3333,-99"/>
</g>
<!-- s1 -->
<g id="node3" class="node state regular">
<title>s1</title>
<polygon fill="#ffffff" fill-opacity="0.003922" stroke="transparent" stroke-width="2" points="82,-52 26,-52 26,-16 82,-16 82,-52"/>
<text text-anchor="start" x="47.6646" y="-30.2" font-family="Helvetica,sans-Serif" font-size="12.00" fill="#000000">s1</text>
<path fill="none" stroke="#000000" stroke-width="2" d="M38.3333,-17C38.3333,-17 69.6667,-17 69.6667,-17 75.3333,-17 81,-22.6667 81,-28.3333 81,-28.3333 81,-39.6667 81,-39.6667 81,-45.3333 75.3333,-51 69.6667,-51 69.6667,-51 38.3333,-51 38.3333,-51 32.6667,-51 27,-45.3333 27,-39.6667 27,-39.6667 27,-28.3333 27,-28.3333 27,-22.6667 32.6667,-17 38.3333,-17"/>
</g>
<!-- s0&#45;&gt;s1 -->
<g id="edge1" class="edge transition">
<title>s0&#45;&gt;s1</title>
<path fill="none" stroke="#000000" d="M58.9595,-97.6574C57.4598,-92.3418 56.0464,-86.4903 55.221,-81 54.3413,-75.148 53.8619,-68.841 53.6267,-62.8061"/>
<polygon fill="#000000" stroke="#000000" points="57.1185,-62.3273 53.4332,-52.3941 50.1197,-62.4575 57.1185,-62.3273"/>
<text text-anchor="middle" x="56.3895" y="-72" font-family="Helvetica,sans-Serif" font-size="10.00" fill="#000000"> </text>
</g>
<!-- s1&#45;&gt;s0 -->
<g id="edge3" class="edge transition">
<title>s1&#45;&gt;s0</title>
<path fill="none" stroke="#000000" d="M57.6902,-52.1504C58.1662,-54.778 58.6195,-57.4542 59,-60 60.3358,-68.9376 61.4891,-78.7208 62.4176,-87.574"/>
<polygon fill="#000000" stroke="#000000" points="58.9615,-88.1889 63.4358,-97.7925 65.927,-87.4948 58.9615,-88.1889"/>
<text text-anchor="start" x="61" y="-72" font-family="Helvetica,sans-Serif" font-size="10.00" fill="#000000">not (~o_ovf) &#160;&#160;</text>
</g>
<!-- s1&#45;&gt;s1 -->
<g id="edge2" class="edge transition">
<title>s1&#45;&gt;s1</title>
<path fill="none" stroke="#000000" d="M82.0183,-38.8247C93.888,-39.1883 104,-37.5801 104,-34 104,-31.5387 99.2205,-30.0094 92.3762,-29.4121"/>
<polygon fill="#000000" stroke="#000000" points="92.0957,-25.9049 82.0183,-29.1753 91.9356,-32.903 92.0957,-25.9049"/>
<text text-anchor="start" x="104" y="-31" font-family="Helvetica,sans-Serif" font-size="10.00" fill="#000000">~o_ovf &#160;&#160;</text>
</g>
</g>
</svg>
